 <!DOCTYPE svg PUBLIC "-//W3C//DTD SVG 1.1//EN" "http://www.w3.org/Graphics/SVG/1.1/DTD/svg11.dtd">

<svg id="a520d0cd-607b-4a47-85d0-b4c7bf68ce12" data-name="Layer 1" xmlns="http://www.w3.org/2000/svg" xmlns:xlink="http://www.w3.org/1999/xlink" width="865.76" height="682.89" viewBox="0 0 865.76 682.89">

<defs>

<clipPath id="ab6709c3-6d7d-4de9-affb-a5115b59ab48">

<path id="f6624356-2054-476e-a6d4-209773c2b64c" data-name="SVGID" d="M342.86,395.62c8,20.7,14.31,26.32,14.31,26.32l58,73.85c2.75,5.89,13,6.29,13,6.29,67.17-15.72,81.7-64,81.7-64a133.49,133.49,0,0,1,7.47-22c27.38-44.78-5.63-59.84-5.63-59.84-19.38-13.62-82.5,2.36-82.5,2.36a2.19,2.19,0,0,0-1.74-1.17,1.89,1.89,0,0,1-1.85-1.18,9.32,9.32,0,0,0-3.22-3.68c7.34-9.16,0-22.78,0-22.78-8.11-10.47-17.54-40.59-17.54-40.59-5-24.89-18.67-11.27-18.67-11.27-5.73,6.11-27.28,9.22-27.28,9.22-13.07,3.8-13.34,13.55-13.5,13.31,0,0,16.55,48.67,2.2,70.27a21.57,21.57,0,0,1-3,3.42C342.24,376.41,337.23,383.18,342.86,395.62Z" fill="#F25757" data-secondary="true"/>

</clipPath>

</defs>

<g id="a5cf179b-de47-4597-ada4-1b725ab87492" data-name="freepik--background-simple--inject-26">

<path d="M100.07,615.05c66.6,42.08,185.63,56.78,235.43,59,135.45,6.07,305.2,12.64,421.87-70.16,68.62-48.76,7.22-191.43-1.81-242S840.44,320.38,791.68,203,578.58,18.8,455.78,20.6s-126.42,84.88-213.1,121-121-9-184.2,68.62,32.5,191.43,47,227.55c8,19.86-26.38,42.06-35.48,56.52C35.61,548.81,56.76,587.75,100.07,615.05Z" fill="#97D2FB" data-primary="true"/>

<path d="M100.07,615.05c66.6,42.08,185.63,56.78,235.43,59,135.45,6.07,305.2,12.64,421.87-70.16,68.62-48.76,7.22-191.43-1.81-242S840.44,320.38,791.68,203,578.58,18.8,455.78,20.6s-126.42,84.88-213.1,121-121-9-184.2,68.62,32.5,191.43,47,227.55c8,19.86-26.38,42.06-35.48,56.52C35.61,548.81,56.76,587.75,100.07,615.05Z" fill="#fff" opacity="0.8" style="isolation:isolate"/>

</g>

<g id="b884a0c6-eb49-4d88-88ab-4a9ee0b9188e" data-name="freepik--Floor--inject-26">

<path d="M54.78,560.66c5.41,21.89,22.19,39.84,45.38,54.48,66.6,42.08,185.63,56.78,235.44,59C471,680.23,640.79,686.8,757.46,604c15-10.63,23.74-25.71,28.22-43.34Z" fill="#97D2FB" data-primary="true"/>

<path d="M54.78,560.66c5.41,21.89,22.19,39.84,45.38,54.48,66.6,42.08,185.63,56.78,235.44,59C471,680.23,640.79,686.8,757.46,604c15-10.63,23.74-25.71,28.22-43.34Z" fill="#fff" opacity="0.6" style="isolation:isolate"/>

</g>

<path d="M398.07,156.66s-9-2.47-10-7.13v-8a3.74,3.74,0,0,1,1.31-2.87,19.36,19.36,0,0,1,20-3.48s10.9,1.24,10,7l-2,11Z" fill="#97D2FB" data-primary="true"/>

<path d="M398.07,156.66s-9-2.47-10-7.13v-8a3.74,3.74,0,0,1,1.31-2.87,19.36,19.36,0,0,1,20-3.48s10.9,1.24,10,7l-2,11Z" opacity="0.2"/>

<polygon points="402.22 194.96 415.27 193.8 418.4 211.13 409.16 213.47 403.72 209.74 402.22 194.96" fill="#F25757" data-secondary="true"/>

<polygon points="402.22 194.96 415.27 193.8 418.4 211.13 409.16 213.47 403.72 209.74 402.22 194.96" opacity="0.5"/>

<path d="M352.23,254.33a84.15,84.15,0,0,1,16.69-1.82s13.62-6,19.12-6.29a14,14,0,0,1,12-6.84L411.87,236s-11.56-11.94-6.33-25.56l20.73.68,1.84,57.06S408.69,275.14,405,293Z" fill="#97D2FB" data-primary="true"/>

<rect x="320.57" y="412.69" width="3.67" height="6.12" transform="translate(-131.72 150.11) rotate(-21.88)" fill="#F25757" data-secondary="true"/>

<path d="M313.11,408.19s.49,7.86,6.18,5.6c0,0,7.17-.88,5.21-6.68a12.54,12.54,0,0,1-3.24-8.25s-1.38-20.62-14.63-13.84c0,0-7,3.43,2,14.53C308.59,399.55,312.18,404.62,313.11,408.19Z" fill="#97D2FB" data-primary="true"/>

<path d="M346.15,373.67c-8.3,10.08-13.15,1.92-13.15,1.92A40.89,40.89,0,0,0,313.93,356c-7.34-3.41-14.67-13.88-14.67-13.88a88.25,88.25,0,0,0-5.32-8.16,55.21,55.21,0,0,1-10.5-30.9c-.3-18.07,8.41-26.66,12.59-29.74a8.59,8.59,0,0,0,2.75-3.45c1.53-3.41,5.59-6.83,5.59-6.83l52.8-1.93c17.06,3.57,29,16.84,29,16.84-5.82,6-26.64,9.17-26.64,9.17s-15.94,2.91-12.21,19.75C347.28,306.82,362.65,353.64,346.15,373.67Z" fill="#97D2FB" data-primary="true"/>

<path d="M357.17,261.06s14.22,2.17,29,16.84c0,0,4.79-4.44,8.46-3.66,0,0-19.91-19.36-35.1-17,0,0,4.46,2.28,3,2.74C362.47,260,358.16,259.4,357.17,261.06Z" fill="#F25757" data-secondary="true"/>

<path d="M289.41,280.33a6.47,6.47,0,0,1,6-2.66s27.67,3.29,50.45,21.09c0,0,3.12-4.24,6.37-8.28,1.42-1.78-31.58-19.81-51.08-21a15.48,15.48,0,0,0-11.25,3.69C287.61,275.16,286,277.45,289.41,280.33Z" fill="#F25757" data-secondary="true"/>

<path id="a1b84f3c-c5d1-4149-9c0d-39c18691285b" data-name="SVGID" d="M342.86,395.62c8,20.7,14.31,26.32,14.31,26.32l58,73.85c2.75,5.89,13,6.29,13,6.29,67.17-15.72,81.7-64,81.7-64a133.49,133.49,0,0,1,7.47-22c27.38-44.78-5.63-59.84-5.63-59.84-19.38-13.62-82.5,2.36-82.5,2.36a2.19,2.19,0,0,0-1.74-1.17,1.89,1.89,0,0,1-1.85-1.18,9.32,9.32,0,0,0-3.22-3.68c7.34-9.16,0-22.78,0-22.78-8.11-10.47-17.54-40.59-17.54-40.59-5-24.89-18.67-11.27-18.67-11.27-5.73,6.11-27.28,9.22-27.28,9.22-13.07,3.8-13.34,13.55-13.5,13.31,0,0,16.55,48.67,2.2,70.27a21.57,21.57,0,0,1-3,3.42C342.24,376.41,337.23,383.18,342.86,395.62Z" fill="#F25757" data-secondary="true"/>

<g clip-path="url(#ab6709c3-6d7d-4de9-affb-a5115b59ab48)">

<path d="M346,403.14s17-31.72,48.61-24.72c0,0,11.91,10.29,15.05,0,0,0-2.35-7.14,3.15-7.15,0,0,3.14-3,9.82,7.15a31.22,31.22,0,0,0,6.54-19.85l52,68.87s34.55-7.72,44.58-29.39l20.62,29.39L434.76,521.33l-44.1-33-48.58-77.39Z" opacity="0.2"/>

</g>

<path d="M439.09,269.38s2.6-26.35,12.11-10.63C451.2,258.75,445.63,261,439.09,269.38Z" fill="#F25757" data-secondary="true"/>

<path d="M367.61,445.12s-24.39-33.64,1.46-52.87a24.48,24.48,0,0,1,15-4.69c13.45.17,39,5.66,41.17,44.6,0,0-1.42,48.31-5.34,58.92,0,0-5.11,15.32-2,22,0,0,5.5,11.39-12.17,14.92,0,0,1.17-9.82-9.83-9,0,0-33.78-3.54-27.89,14.53,0,0-16.13-2.35-10.81-17.28,0,0,8.85-24.36,8.46-46.75C365.65,469.47,364.51,451,367.61,445.12Z" fill="#F25757" data-secondary="true"/>

<path d="M368,553.54a25.09,25.09,0,0,0,0-20s-6.12-11.28,13.24-14.28c0,0,8.56-1.29,14.65-.25,0,0,10.36-1.76,9.83,9a17.63,17.63,0,0,0,0,13.36s22.33,1.62,18.41,14.71c0,0-26.41-10.52-33.47,12.53,0,0-2.1,9.68-6.81,11.52,0,0-4.29-4.36-7.89-.75a5.08,5.08,0,0,0-1.38,3.61,9.41,9.41,0,0,0,.89,4.47l-2.36,2.88s-7-3.68-8.61-16.4a37,37,0,0,1,3-19.28Z" fill="#97D2FB" data-primary="true"/>

<path d="M365.59,579.24a19,19,0,0,0-5.83,17.11s1,5-.29,8.65c0,0,30.71-20.62,37.36-35a18.06,18.06,0,0,1,6.28-7.08c4.9-3.57,13-7,24.73,1v-6.81s-18.95-10.36-30.56.85c0,0-4.68,3.22-7.09,12.45,0,0-2.09,8-6.34,9.75,0,0-4-4.9-7.84-1.27,0,0-3.54,1.85-.54,8.6l-2.36,2.88S368.28,588.25,365.59,579.24Z" fill="#F25757" data-secondary="true"/>

<path d="M360.07,604.59a7.5,7.5,0,0,0-2.87,9.24s3.14,11,20.43,5.5c0,0,44.78-17.87,53.81-38.49,0,0,2.82-10.35-3.6-17,0,0-15-11.32-27.17.3a18.84,18.84,0,0,0-3.75,5.26C394.63,574,386.46,586.55,360.07,604.59Z" fill="#97D2FB" data-primary="true"/>

<path d="M360.07,604.59a7.5,7.5,0,0,0-2.87,9.24s3.14,11,20.43,5.5c0,0,44.78-17.87,53.81-38.49,0,0,2.82-10.35-3.6-17,0,0-15-11.32-27.17.3a18.84,18.84,0,0,0-3.75,5.26C394.63,574,386.46,586.55,360.07,604.59Z" fill="#fff" opacity="0.5"/>

<path d="M426.69,202.08a2,2,0,0,1-.2.24,21,21,0,0,1-4.14,3.22c-3.76,2.11-7.33-2.71-4.8-6.21.05-.09-.51,0-.42-.1a1.18,1.18,0,0,0-.48-1.83c-3.35-1.34-11-4.06-16,1.22a1.16,1.16,0,0,0,0,1.48c1.39,1.84,4.38,7.28-.32,9.46a1.13,1.13,0,0,1-.66.18c-1.92,0-10.81-1-7.24-15.89,0,0,0,0,0-.07.24-.83,5.1-15.57,24.77-12.61,0,0,6.14-.11,9.29,4.3l0,15.42v0C426.49,201.17,426.8,202,426.69,202.08Z" fill="#F25757" data-secondary="true"/>

<rect x="406.96" y="184" width="3.23" height="6.25" fill="#e6e7e8"/>

<path d="M413.61,193.67l-3.42-3.42v-5.93a.13.13,0,0,1,.22-.08l3.2,3.48Z" fill="#bcbec0"/>

<path d="M407,190.25l2.24,5L407,198.14s.64,1.51,2.87.76c0,0,4.31-2.27,3.78-5.23l-3.42-3.42Z" fill="#d1d3d4"/>

<path d="M401.6,185.34l-2.68,4.91s-2.16,5,1.34,6.1l1.34-5.21Z" fill="#d1d3d4"/>

<path d="M405,191.14H401.6l-1.34,5.21c.79.2,1.64.39,2.53.55s1.85.3,2.7.39Z" fill="#bcbec0"/>

<path d="M400.34,209.56s.86,4.53,5.87,2.35c0,0,2.75-2-1.18-5.4,0,0-3.24-4.45,1.14-9.11l-3.27-.53s-4,2-2,3.6C400.91,200.47,405.57,206.75,400.34,209.56Z" fill="#939598"/>

<path d="M341,393.8s-15.06,28.11-26.06,28.2a.92.92,0,0,0-.74,1.39,102.88,102.88,0,0,1,8.54,18.85,40,40,0,0,0,11,17.65c7.54,6.78,19.95,11.26,31.89-3.58,0,0,.31-8,2-11.19,0,0-4.37-7.69-9.64-22.16,0,0-8.8-11.18-12.45-20.87,0,0,17.75-28.16,49.47-38.55C395,363.54,345.13,370.53,341,393.8Z" fill="#d1d3d4"/>

<path d="M345.52,402.09s-14.37,37.49.46,53.31c0,0,13,11.57,21.63-10.28A205.3,205.3,0,0,1,358,423S348.54,410.57,345.52,402.09Z" fill="#bcbec0"/>

<polyline points="426.49 200.93 426.49 200.89 426.53 185.47 426.86 65.57 453.57 57.65 476.76 68.63 502.99 677.42 425.19 677.42 426.49 200.89" fill="#d1d3d4"/>

<path d="M457.06,456.84l-5-1.54a.3.3,0,0,1-.05-.55l10.47-5.38a6.5,6.5,0,0,1,3.41-.7l27.31,1.85.62,14s11.72-4.17,6.12-18.18c0,0-1.25-6.93-17.75-6.42l-13.39,0s-4.68-.71-11.84,3c0,0-17.31,11.72-12.38,16.34a4.05,4.05,0,0,0,4.13.66Z" fill="#bcbec0"/>

<path d="M370.23,611.81l86.45-61.27a28.48,28.48,0,0,1,16.48-5.25h20.56a14.27,14.27,0,0,1,9.26,3.2c3.46,2.93,5.45,7.77-4.94,14.15l-.36-8.19-24.95-1.74A21.39,21.39,0,0,0,461.89,556l-89.56,60S367,617.25,370.23,611.81Z" fill="#bcbec0"/>

<path d="M398.07,152.73s-11.6-3.4-3.75-8.9c0,0,16-5.77,20.95,1.83C415.27,145.66,414.64,155.61,398.07,152.73Z" fill="#d1d3d4"/>

<path d="M210,160.85s135.94-17.11,153-24.52" fill="none" stroke="#58595b" stroke-miterlimit="10"/>

<path d="M479.9,141.73s107.17,4.46,121.31,0" fill="none" stroke="#58595b" stroke-miterlimit="10"/>

<path d="M370.26,141.29a19.38,19.38,0,0,0,1.15,10.07,24.41,24.41,0,0,0,5.68,8.32,18.88,18.88,0,0,0,1.88,1.69c.67.51,1.3,1.08,2,1.56a39.78,39.78,0,0,0,4.31,2.64,46.12,46.12,0,0,0,4.67,2,23.25,23.25,0,0,1,4.8,2.36,25.84,25.84,0,0,1,7.55,7.54,34.09,34.09,0,0,1,4.26,9.72,51.12,51.12,0,0,1,1.66,10.4c.08,1.75.06,3.5.08,5.25l-.3,5.22v-.11a43.88,43.88,0,0,0,1.51,8.67,29.26,29.26,0,0,0,3.48,8,15.38,15.38,0,0,0,6.39,5.81,16.05,16.05,0,0,0,8.72,1.09,14.68,14.68,0,0,1-16-6.27,28.88,28.88,0,0,1-4-8.26,43.19,43.19,0,0,1-1.82-9v-.12a60.59,60.59,0,0,0-1.63-20.21,33.39,33.39,0,0,0-4-9.18,25.05,25.05,0,0,0-6.91-7.08,21.73,21.73,0,0,0-4.42-2.28,42,42,0,0,1-4.79-2.18,34.94,34.94,0,0,1-8.34-6.45,23.91,23.91,0,0,1-5.45-8.94A18.68,18.68,0,0,1,370.26,141.29Z" fill="#58595b"/>

<path d="M343.68,193a86.72,86.72,0,0,1,10.44,10.11,12.44,12.44,0,0,0,3.18-2.29,4,4,0,0,0-.67-5.94A15,15,0,0,0,343.68,193Z" fill="#97D2FB" data-primary="true"/>

<path d="M343.68,193a86.72,86.72,0,0,1,10.44,10.11,12.44,12.44,0,0,0,3.18-2.29,4,4,0,0,0-.67-5.94A15,15,0,0,0,343.68,193Z" opacity="0.5"/>

<path d="M302.93,237.32s7.59,7.85,9.42,13.61l2.8-10.55a14,14,0,0,1-11.83-11.44A11.94,11.94,0,0,0,302.93,237.32Z" fill="#F25757" data-secondary="true"/>

<path d="M315.15,240.38s-4.37,11.08-2.8,15c0,0,1.84,12,19.12,13.35,0,0,18.07-.52,28,4.19l-9.16-13.09s-4.88-4.12,3.32-12.93l-36.59-7.53Z" fill="#f9b499"/>

<path d="M312.35,250.93a7.73,7.73,0,0,1,6.84-1.5,8.6,8.6,0,0,1,4.39,2.74c3.05,3.46,12.79,12.61,26.75,7.67,0,0-4.87-4.21,3.32-12.93l-36.59-7.53-1.91,1S313.4,243.6,312.35,250.93Z" fill="#f7a48b"/>

<ellipse cx="333.63" cy="219.48" rx="26.13" ry="34.1" transform="matrix(0.87, -0.5, 0.5, 0.87, -65.04, 196.22)" fill="#f9b499"/>

<path d="M313.93,211.13s.26,10.74,3.92,14.4l-4,4.65s-6.15-4.59-10.21-1.24A36.2,36.2,0,0,1,313.93,211.13Z" fill="#F25757" data-secondary="true"/>

<path d="M300.77,238.1s-23.46-26-.75-52.12c0,0,28.58-25.65,51.39.59,0,0-19.9-3.71-41.22,23.24C310.19,209.81,299.91,223,300.77,238.1Z" fill="#97D2FB" data-primary="true"/>

<path d="M305.9,240.67s-8.76,3.17-4.89-12.48a48.37,48.37,0,0,1,9.18-18.38c8.94-11.23,27.31-29.22,49.3-22.28,0,0,16.78,3.86-4.35,17.06l-1-1.53s7.63-4.72-.47-8.32c0,0-19.72-9.48-39.72,16.39,0,0-12.56,13.54-11,26.19C302.93,237.32,304.83,239.35,305.9,240.67Z" fill="#97D2FB" data-primary="true"/>

<path d="M305.9,240.67s-8.76,3.17-4.89-12.48a48.37,48.37,0,0,1,9.18-18.38c8.94-11.23,27.31-29.22,49.3-22.28,0,0,16.78,3.86-4.35,17.06l-1-1.53s7.63-4.72-.47-8.32c0,0-19.72-9.48-39.72,16.39,0,0-12.56,13.54-11,26.19C302.93,237.32,304.83,239.35,305.9,240.67Z" opacity="0.2"/>

<path d="M314.22,229.81c3.51,3.08,4.85,7.28,3,9.38s-6.18,1.3-9.69-1.78-5.26-7.51-3.41-9.61S310.72,226.72,314.22,229.81Z" fill="#f9b499"/>

<path d="M312.35,249.9s-15.78,8-6.73,14.11c0,0,7.79,2.73,13.68,14.94,0,0,20.6-12.46,40.19-6,0,0-5.75-4.29-28-4.19C331.47,268.74,312.35,268.83,312.35,249.9Z" fill="#97D2FB" data-primary="true"/>

<path d="M312.35,249.9s-15.78,8-6.73,14.11c0,0,7.79,2.73,13.68,14.94,0,0,20.6-12.46,40.19-6,0,0-5.75-4.29-28-4.19C331.47,268.74,312.35,268.83,312.35,249.9Z" fill="#fff" opacity="0.5"/>

<path d="M362.79,259.27c-2.63-1.83-8-5.18-13.58-5.35,0,0-1.2,3.61,1.12,5.92l5.85,8.35s-2.63-9.81,6.29-8.22A.39.39,0,0,0,362.79,259.27Z" fill="#97D2FB" data-primary="true"/>

<path d="M362.79,259.27c-2.63-1.83-8-5.18-13.58-5.35,0,0-1.2,3.61,1.12,5.92l5.85,8.35s-2.63-9.81,6.29-8.22A.39.39,0,0,0,362.79,259.27Z" fill="#fff" opacity="0.5"/>

<path d="M420.58,360.86a5.86,5.86,0,0,0,4.06-2.16c2.42-3.22-1.43-6.08-1.43-6.08-5.81-5.36-31.24-2.46-31.24-2.46-32.48,4.48-50.71,19.81-55.14,24a6,6,0,0,1-2.37,1.37c-6.15,1.78-3.17,5.89-1.59,7.58A5.49,5.49,0,0,1,334,384.9c.95,2.6,2.59,9,7,8.9,0,0,.7-15.52,44.38-28.25a53.74,53.74,0,0,1,9.32-1.84Z" fill="#e6e7e8"/>

<path d="M412.62,199.77s3.62,3.73-.72,10.57c0,0-1,3.4,1.71,3.12,0,0,6.89-.43,4.14-16.06C417.75,197.4,416.5,199,412.62,199.77Z" fill="#939598"/>

<path d="M419.4,205.3a1.66,1.66,0,0,0-2.06.82c-.88,1.9-1.66,5,2.68,5,0,0,5.06.13,6.83-4.17V201.9S423.23,206.51,419.4,205.3Z" fill="#F25757" data-secondary="true"/>

<path d="M426.27,211.13s-7.79,8.51-11.91,4.78c0,0-3.08-4.8,3.21-5.26,0,0,6.85,1.89,9.28-3.69Z" fill="#F25757" data-secondary="true"/>

<path d="M413.61,187.72s6.27.58,5.71,5.36c0,0,.59,5.65-6.7,6.69,0,0-2.85.63-2.43-1.07,0,0,3.42-2,3.42-5Z" fill="#a7a9ac"/>

<path d="M398.92,190.25s-4.93,2.47-3,6.12,6.68,4.74,9.13.9c0,0-2.94-.52-4.76-.9C400.32,196.37,397,195.62,398.92,190.25Z" fill="#a7a9ac"/>

<polygon points="401.6 185.34 401.6 191.14 405.03 191.14 404.64 185.2 401.6 185.34" fill="#e6e7e8"/>

<path d="M403.67,336s54.65-32,83.62-23.49v7.21s15-3.8,5.79-13.34c0,0-15.75-10.86-56.1,6.16l-36.26,16Z" fill="#bcbec0"/>

<path d="M375.88,346s26.3-3.41,37.82-19.12c0,0,12.57,1.31,11.26-11,0,0-13.35-5.76-8.38-21.73,0,0-8.64,2.09-9.42,6.28a18.61,18.61,0,0,0-13.88,4.71s-5.77-1.83-13.36,3.15c0,0-6.29,4.71-10.74.26,0,0-14.56-8.11-22.29-9-3.39-.4-5.95-.76-7.63-1a8.69,8.69,0,0,1-3.95-1.67c-3.63-2.77-13.39-9-26.41-8.06a16.33,16.33,0,0,0-14.19,11c-3.4,9.65-3.92,26.23,23.14,39.29C317.85,339.06,344.64,358.42,375.88,346Z" fill="#97D2FB" data-primary="true"/>

<path d="M375.88,346s26.3-3.41,37.82-19.12c0,0,12.57,1.31,11.26-11,0,0-13.35-5.76-8.38-21.73,0,0-8.64,2.09-9.42,6.28a18.61,18.61,0,0,0-13.88,4.71s-5.77-1.83-13.36,3.15c0,0-6.29,4.71-10.74.26,0,0-14.56-8.11-22.29-9-3.39-.4-5.95-.76-7.63-1a8.69,8.69,0,0,1-3.95-1.67c-3.63-2.77-13.39-9-26.41-8.06a16.33,16.33,0,0,0-14.19,11c-3.4,9.65-3.92,26.23,23.14,39.29C317.85,339.06,344.64,358.42,375.88,346Z" opacity="0.2"/>

<path d="M428.11,283.86s-10.48,5.05-11.53,10.29c0,0-6.27,16.15,8.38,21.73,0,0,12.57,3.14,18.47-13.35,0,0,6.28,3,10.21-4.19,0,0,1.57-4.85,5.89-3.67s15.71-2.36,9.82-9c0,0,10.22-1.32,3.54-7.73,0,0,10.42-1.6,2.26-8.52,0,0,8-6-3.83-12.35C471.32,257,448.14,246.72,428.11,283.86Z" fill="#F25757" data-secondary="true"/>

<g opacity="0.2">

<path d="M456.27,264a22.78,22.78,0,0,1,5.14-.6,23.14,23.14,0,0,1,5.17.51,16.77,16.77,0,0,1,4.9,1.87,10.77,10.77,0,0,1,3.67,3.65,14.94,14.94,0,0,0-4-3,21.71,21.71,0,0,0-4.73-1.57,34.66,34.66,0,0,0-5-.71C459.69,264,458,263.93,456.27,264Z"/>

</g>

<g opacity="0.2">

<path d="M456.27,275.72a10.35,10.35,0,0,1,4.16-1.49,15.15,15.15,0,0,1,4.46,0,17,17,0,0,1,4.26,1.32,20.22,20.22,0,0,1,2,1c.61.42,1.21.84,1.79,1.29-.7-.26-1.34-.59-2-.85s-1.34-.55-2-.76-1.35-.46-2.05-.6-1.38-.31-2.07-.45a21.37,21.37,0,0,0-4.23-.24A16.82,16.82,0,0,0,456.27,275.72Z"/>

</g>

<g opacity="0.2">

<path d="M460.7,285.92A10.9,10.9,0,0,1,465,284.3a7.6,7.6,0,0,1,2.38,0,2.37,2.37,0,0,1,1.94,1.33,3,3,0,0,0-2-.56,19.83,19.83,0,0,0-2.15.22C463.72,285.49,462.26,285.79,460.7,285.92Z"/>

</g>

<g opacity="0.2">

<path d="M428.11,283.86c.12,1.89.14,3.71.38,5.5a10.47,10.47,0,0,0,1.71,5.05,4.82,4.82,0,0,1-1.91-2.15,8.51,8.51,0,0,1-.79-2.78,12.44,12.44,0,0,1,0-2.86A10.53,10.53,0,0,1,428.11,283.86Z"/>

</g>

<g opacity="0.2">

<path d="M443.43,302.53a8.86,8.86,0,0,1-2.36-.19,16.06,16.06,0,0,1-2.25-.65,13.67,13.67,0,0,1-4.06-2.31A20.08,20.08,0,0,1,437,300c.73.24,1.44.5,2.16.76C440.6,301.3,442,301.85,443.43,302.53Z"/>

</g>

<path d="M382.05,125.37c-.52,4,.61,9.18,8,12.83,0,0,7.4-7.87,26.12-1a18.19,18.19,0,0,0,1.6-5.43,3.43,3.43,0,0,1,1.35-2.36c2.2-1.64,5.89-5.88-1.26-12.83,0,0-15.95-14.78-31.2.06A15.05,15.05,0,0,0,382.05,125.37Z" fill="#97D2FB" data-primary="true"/>

<path d="M389.62,132.3s11.61-5.94,27.8,1.46" fill="none" stroke="#58595b" stroke-miterlimit="10"/>

<path d="M389.11,135.41a5.4,5.4,0,0,1-7.18,2.62,4.49,4.49,0,0,1-.53-.29,5.39,5.39,0,0,1-2.09-6.89,5.14,5.14,0,0,1,1.19-1.65,5.4,5.4,0,0,1,8.61,6.21Z" fill="none" stroke="#58595b" stroke-miterlimit="10"/>

<path d="M381.4,137.74a5.39,5.39,0,0,1-8.58-6.22,5.18,5.18,0,0,1,1.3-1.72,5.39,5.39,0,0,1,5.88-.88,2,2,0,0,1,.5.28,5.14,5.14,0,0,0-1.19,1.65A5.39,5.39,0,0,0,381.4,137.74Z" fill="none" stroke="#58595b" stroke-miterlimit="10"/>

<path d="M377.16,139.19a5.33,5.33,0,0,1-5.33,1.1,5.12,5.12,0,0,1-2.66-1.95,5.39,5.39,0,0,1,.7-7.13c.16-.14.33-.29.51-.42a5.32,5.32,0,0,1,3.74-1,5.18,5.18,0,0,0-1.3,1.72,5.41,5.41,0,0,0,2.6,7.19A5.33,5.33,0,0,0,377.16,139.19Z" fill="none" stroke="#58595b" stroke-miterlimit="10"/>

<path d="M371.83,140.29c-.17.14-.33.29-.52.42A5.41,5.41,0,1,1,365,132a5.35,5.35,0,0,1,4.9-.74,5.39,5.39,0,0,0-.7,7.13A5.12,5.12,0,0,0,371.83,140.29Z" fill="none" stroke="#58595b" stroke-miterlimit="10"/>

<path d="M398.46,149.23s-3.16,16.88,8.5,14.42c0,0,15.72-6,19.67-16.18l0-12.3s-13,13.6-18.08,14.36h0a4.55,4.55,0,0,0-3.56-4.48C402.92,144.61,400.31,145.16,398.46,149.23Z" fill="#939598"/>

</svg>